<?xml version="1.0" encoding="utf-8"?>
<!-- Generator: Adobe Illustrator 25.0.1, SVG Export Plug-In . SVG Version: 6.00 Build 0)  -->
<svg version="1.1" id="Layer_1" xmlns="http://www.w3.org/2000/svg" xmlns:xlink="http://www.w3.org/1999/xlink" x="0px" y="0px"
	 viewBox="0 0 100 100" style="enable-background:new 0 0 100 100;" xml:space="preserve">
<style type="text/css">
	.st0{fill:#4F3266;}
</style>
<path class="st0" d="M84.4,67.2c-0.5,0-1.1,0.1-1.6,0.3v-1.8c0-2.6-2.1-4.7-4.7-4.7c-0.8,0-1.6,0.2-2.3,0.6
	c-1.4-2.2-4.3-2.8-6.5-1.4c-0.6,0.4-1.1,0.9-1.4,1.4c-0.7-0.4-1.5-0.6-2.3-0.6c-2.6,0-4.7,2.1-4.7,4.7H39.1c0-2.6-2.1-4.7-4.7-4.7
	c-0.8,0-1.6,0.2-2.3,0.6c-1.4-2.2-4.3-2.8-6.5-1.4c-0.6,0.4-1.1,0.9-1.4,1.4c-0.7-0.4-1.5-0.6-2.3-0.6c-2.6,0-4.7,2.1-4.7,4.7v1.8
	c-2.4-0.9-5.1,0.4-6,2.9c-0.2,0.5-0.3,1-0.3,1.6v15.6c0,0.2,0,0.4,0.1,0.6l3.1,7.8c0.2,0.6,0.8,1,1.5,1h23.4c0.6,0,1.1-0.3,1.3-0.8
	l4.7-7.8c0.1-0.2,0.2-0.5,0.2-0.8v-3.1h9.4v3.1c0,0.3,0.1,0.6,0.2,0.8l4.7,7.8c0.3,0.5,0.8,0.8,1.3,0.8h23.4c0.6,0,1.2-0.4,1.5-1
	l3.1-7.8c0.1-0.2,0.1-0.4,0.1-0.6V71.9C89.1,69.3,87,67.2,84.4,67.2z M42.2,87.1l-4,6.7H16.7l-2.6-6.5V71.9c0-0.9,0.7-1.6,1.6-1.6
	s1.6,0.7,1.6,1.6v4.7c0,0.9,0.7,1.6,1.6,1.6s1.6-0.7,1.6-1.6V65.6c0-0.9,0.7-1.6,1.6-1.6s1.6,0.7,1.6,1.6v10.9
	c0,0.9,0.7,1.6,1.6,1.6c0.9,0,1.6-0.7,1.6-1.6V64.1c0-0.9,0.7-1.6,1.6-1.6s1.6,0.7,1.6,1.6v12.5c0,0.9,0.7,1.6,1.6,1.6
	c0.9,0,1.6-0.7,1.6-1.6V65.6c0-0.9,0.7-1.6,1.6-1.6s1.6,0.7,1.6,1.6v14.1c0,0.9,0.7,1.6,1.6,1.6s1.6-0.7,1.6-1.6v-6.2
	c0-0.9,0.7-1.6,1.6-1.6s1.6,0.7,1.6,1.6V87.1z M54.7,81.2h-9.4V75h9.4V81.2z M55,71.9H45c-0.9-2.4-3.5-3.7-6-2.9v-0.3h21.9V69
	C58.5,68.2,55.8,69.4,55,71.9z M85.9,87.2l-2.6,6.5H61.8l-4-6.7V73.4c0-0.9,0.7-1.6,1.6-1.6s1.6,0.7,1.6,1.6v6.2
	c0,0.9,0.7,1.6,1.6,1.6s1.6-0.7,1.6-1.6V65.6c0-0.9,0.7-1.6,1.6-1.6s1.6,0.7,1.6,1.6v10.9c0,0.9,0.7,1.6,1.6,1.6s1.6-0.7,1.6-1.6
	V64.1c0-0.9,0.7-1.6,1.6-1.6s1.6,0.7,1.6,1.6v12.5c0,0.9,0.7,1.6,1.6,1.6s1.6-0.7,1.6-1.6V65.6c0-0.9,0.7-1.6,1.6-1.6
	s1.6,0.7,1.6,1.6v10.9c0,0.9,0.7,1.6,1.6,1.6s1.6-0.7,1.6-1.6v-4.7c0-0.9,0.7-1.6,1.6-1.6s1.6,0.7,1.6,1.6V87.2z"/>
<path class="st0" d="M96.8,72.8l-7.7-18.5V7.8c0-2.6-2.1-4.7-4.7-4.7H15.6c-2.6,0-4.7,2.1-4.7,4.7v46.6L3.2,72.8
	c-0.1,0.2-0.1,0.4-0.1,0.6v6.2c0,2.6,2.1,4.7,4.7,4.7v-3.1c-0.9,0-1.6-0.7-1.6-1.6V75h1.6v-3.1H7l6.5-15.6h72.9L93,71.9h-0.8V75h1.6
	v4.7c0,0.9-0.7,1.6-1.6,1.6v3.1c2.6,0,4.7-2.1,4.7-4.7v-6.2C96.9,73.2,96.8,73,96.8,72.8z M14.1,53.1V7.8c0-0.9,0.7-1.6,1.6-1.6
	h68.8c0.9,0,1.6,0.7,1.6,1.6v45.3H14.1z"/>
<rect x="42.2" y="59.4" class="st0" width="3.1" height="3.1"/>
<rect x="48.4" y="59.4" class="st0" width="3.1" height="3.1"/>
<rect x="54.7" y="59.4" class="st0" width="3.1" height="3.1"/>
<g>
	<path class="st0" d="M67,40c-1.8,0-3.2-0.2-3.6-0.2c-3.3-0.5-6-2.3-7.3-4.8c-0.8-1.6-0.9-3.5-0.3-5.3c0.5-1.5,1.5-2.7,2.9-3.4
		c1.3-0.6,2.9-0.7,4.3-0.1c0.1,0,0.1,0.1,0.2,0.1c-0.5-1.3-1.4-2.4-2.6-3.1c-2.1-1.2-4.9-1.3-7.6-0.3c-2.3,0.9-4.5,2.6-6.7,5.1
		c-0.8,1-1.6,2-2.4,3.2c-1.8,2.5-3.6,5.1-6.4,6.7c-3.3,1.8-7,1.8-10.4,1.7c-0.5,0-1.1,0-1.6,0v-3c0.5,0,1.1,0,1.7,0
		c3.1,0,6.3,0.1,8.9-1.3c2.2-1.2,3.8-3.5,5.5-5.8c0.8-1.2,1.7-2.4,2.6-3.4c2.6-2.9,5.2-4.9,7.9-6c3.5-1.4,7.4-1.2,10.3,0.5
		c3.4,2,5.2,6.1,4.1,9.6l-1.2,3.9l-1.6-3.8c-0.2-0.6-0.8-1.1-1.5-1.3c-0.7-0.3-1.4-0.2-2,0c-0.6,0.3-1.1,0.9-1.3,1.6
		c-0.3,1-0.3,2.1,0.2,3c0.8,1.6,2.7,2.8,5.1,3.2c3.7,0.6,8.4,0.1,9.6-1.8l2.5,1.6C74.2,39.5,70,40,67,40z"/>
</g>
</svg>
